<?xml version="1.0" standalone="no"?>
<!DOCTYPE svg PUBLIC "-//W3C//DTD SVG 20010904//EN"
 "http://www.w3.org/TR/2001/REC-SVG-20010904/DTD/svg10.dtd">
<svg version="1.0" xmlns="http://www.w3.org/2000/svg"
 width="575.000000pt" height="958.000000pt" viewBox="0 0 575.000000 958.000000"
 preserveAspectRatio="xMidYMid meet">

<g transform="translate(0.000000,958.000000) scale(0.100000,-0.100000)"
fill="#000000" stroke="none">
<path d="M2962 9423 c-5 -10 -7 -32 -5 -49 9 -56 -15 -166 -51 -239 -21 -41
-74 -115 -130 -180 -96 -112 -165 -224 -191 -312 -42 -141 -61 -367 -45 -543
16 -186 34 -272 74 -355 55 -116 260 -355 338 -396 165 -85 373 119 465 456
27 99 28 104 28 400 l-1 300 -28 90 c-15 50 -57 164 -93 255 -162 411 -317
657 -361 573z m169 -245 c28 -56 71 -153 95 -215 86 -219 153 -498 126 -525
-18 -18 -58 25 -97 107 -28 57 -37 93 -50 195 -18 145 -86 416 -130 523 -4 9
-4 17 -1 17 3 0 29 -46 57 -102z"/>
<path d="M4515 6728 c-164 -354 -322 -692 -351 -753 -28 -60 -205 -438 -392
-840 -187 -401 -361 -773 -386 -825 l-46 -95 5 330 c15 1004 16 1315 6 1700
-9 355 -39 1075 -45 1082 -1 1 -31 -9 -66 -24 -136 -55 -286 -54 -409 3 -30
13 -56 22 -59 19 -6 -6 -15 -111 -41 -480 -81 -1128 -81 -2276 -1 -3850 11
-209 38 -749 60 -1200 22 -451 44 -905 50 -1009 5 -104 8 -191 7 -193 -2 -2
-120 201 -262 450 -470 822 -491 858 -1146 1912 -168 270 -417 671 -555 892
l-249 402 -298 1 -297 0 2 -2102 3 -2103 253 -3 254 -2 -5 1487 c-4 1337 -9
1615 -32 1956 -3 48 -2 87 2 86 4 0 65 -116 135 -257 184 -372 368 -696 688
-1217 108 -175 241 -392 848 -1380 118 -192 259 -422 314 -511 l99 -161 76 -7
c97 -8 318 -8 406 1 l67 6 0 171 c0 303 34 1009 85 1766 9 124 29 421 45 660
16 239 32 507 35 595 3 88 8 202 11 253 l6 92 40 -82 c22 -46 116 -240 208
-433 92 -192 254 -530 360 -750 106 -220 214 -445 240 -500 26 -55 102 -212
168 -350 176 -367 270 -562 348 -725 38 -79 114 -239 170 -355 l101 -210 351
-3 c194 -1 352 -1 352 2 0 4 -21 47 -445 931 -164 341 -317 661 -340 710 -23
50 -76 160 -117 245 -87 179 -285 590 -368 765 -32 66 -108 226 -170 355 -332
693 -340 710 -340 725 0 8 68 157 151 332 84 175 171 359 194 408 23 50 111
234 195 410 84 176 169 356 190 400 46 99 459 967 668 1405 204 429 222 468
222 491 0 18 -10 19 -348 19 l-347 0 -300 -642z m-1675 557 c17 -9 30 -17 30
-18 0 -1 -9 -108 -20 -237 -17 -204 -28 -390 -56 -887 -3 -62 -10 -113 -15
-113 -4 0 -20 5 -34 12 -23 10 -25 16 -25 83 0 258 64 1175 82 1175 5 0 22 -7
38 -15z m444 -112 c20 -383 26 -517 32 -810 4 -178 5 -323 3 -323 -2 0 -18 -4
-34 -9 l-30 -8 0 416 c0 322 -5 463 -19 625 -18 202 -18 210 0 223 37 27 41
17 48 -114z m-364 52 c0 -19 -7 -108 -15 -197 -20 -228 -44 -609 -52 -825 -5
-145 -9 -183 -20 -183 -15 0 -15 10 13 515 14 261 38 595 50 683 6 51 24 56
24 7z m258 -210 c5 -88 9 -351 8 -585 l-1 -425 -70 -8 c-38 -5 -107 -6 -152
-2 l-83 7 0 96 c1 168 33 698 66 1078 l7 71 61 -4 c33 -3 79 -1 101 4 l40 9 7
-40 c4 -23 11 -113 16 -201z"/>
</g>
</svg>
